# Blender 4.2.3 LTS
# www.blender.org
mtllib untitled.mtl
o Cube
v 1.000000 1.000000 -1.000000
v 1.000000 -1.000000 -1.000000
v 1.000000 1.000000 1.000000
v 1.000000 -1.000000 1.000000
v -1.000000 1.000000 -1.000000
v -1.000000 -1.000000 -1.000000
v -1.000000 1.000000 1.000000
v -1.000000 -1.000000 1.000000
vn -0.0000 1.0000 -0.0000
vn -0.0000 -0.0000 1.0000
vn -1.0000 -0.0000 -0.0000
vn -0.0000 -1.0000 -0.0000
vn 1.0000 -0.0000 -0.0000
vn -0.0000 -0.0000 -1.0000
vt 0.625000 0.500000
vt 0.875000 0.500000
vt 0.875000 0.750000
vt 0.625000 0.750000
vt 0.375000 0.750000
vt 0.625000 1.000000
vt 0.375000 1.000000
vt 0.375000 0.000000
vt 0.625000 0.000000
vt 0.625000 0.250000
vt 0.375000 0.250000
vt 0.125000 0.500000
vt 0.375000 0.500000
vt 0.125000 0.750000
s 0
usemtl Material
f 1/1/1 5/2/1 7/3/1 3/4/1
f 4/5/2 3/4/2 7/6/2 8/7/2
f 8/8/3 7/9/3 5/10/3 6/11/3
f 6/12/4 2/13/4 4/5/4 8/14/4
f 2/13/5 1/1/5 3/4/5 4/5/5
f 6/11/6 5/10/6 1/1/6 2/13/6
o Cube.001
v 2.188561 1.039887 -4.194573
v 1.746406 -1.000000 -3.587933
v 2.127224 0.489980 3.762767
v 2.446706 -1.000000 4.019939
v 2.104351 1.000000 1.667296
v 2.620722 -1.000000 1.667296
v 2.238189 0.624120 3.542075
v 2.620722 -1.000000 3.542075
v 2.620722 -1.000000 -0.965670
v 2.620722 -1.000000 -3.372502
v 2.104351 1.000000 -3.372502
v 0.000000 -1.000000 -3.587933
v 0.000000 0.489980 3.762767
v 0.000000 -1.000000 4.019939
v 0.000000 1.282063 -4.187457
v 0.000000 -1.000000 1.667296
v 0.000000 1.000000 1.667296
v 0.000000 -1.000000 3.542075
v 0.000000 0.624120 3.542075
v 0.000000 -1.000000 -0.965670
v 0.000000 -1.000000 -3.372502
v 0.000000 1.000000 -3.372502
v 2.528801 -1.000000 1.667296
v 2.528801 -1.000000 3.542075
v 2.528801 -1.000000 -0.965670
v 2.528801 -1.000000 -3.372502
v 1.554724 -1.000000 1.667296
v 1.554724 -1.000000 3.542075
v 1.554724 -1.000000 -0.965670
v 1.554724 -1.000000 -3.372502
v 2.528801 -1.297011 -3.372502
v 2.528801 -1.297011 -0.965670
v 2.528801 -1.297011 1.667296
v 2.528801 -1.297011 3.542075
v 1.554724 -1.297011 1.667296
v 1.554724 -1.297011 3.542075
v 1.554724 -1.297011 -0.965670
v 1.554724 -1.297011 -3.372502
v 2.528801 -1.596117 -3.201979
v 2.528801 -1.596117 -1.136193
v 2.528801 -1.596117 1.800123
v 2.528801 -1.596117 3.409248
v 1.554724 -1.596117 1.800123
v 1.554724 -1.596117 3.409248
v 1.554724 -1.596117 -1.136193
v 1.554724 -1.596117 -3.201979
v 2.528801 -1.787143 -2.578684
v 2.528801 -1.787143 -1.759488
v 2.528801 -1.787143 2.285633
v 2.528801 -1.787143 2.923738
v 1.554724 -1.787143 2.285633
v 1.554724 -1.787143 2.923738
v 1.554724 -1.787143 -1.759488
v 1.554724 -1.787143 -2.578684
v 2.687051 -0.092109 1.667296
v 2.687051 -0.092109 3.542075
v 2.687051 -0.092109 -0.965670
v 2.687051 -0.092109 -3.372502
v 2.770783 -0.408020 1.667296
v 2.839970 -1.010961 1.880363
v 2.770783 -0.408020 3.542075
v 2.839970 -1.010961 3.329008
v 2.770783 -0.408020 -0.965670
v 2.839970 -1.010961 -1.239205
v 2.770783 -0.408020 -3.372502
v 2.839970 -1.010961 -3.098967
v 0.000000 2.190288 -2.721582
v 0.000000 2.190288 0.372981
v 1.455823 2.190288 0.372981
v 1.455823 2.190288 -2.204187
v 0.000000 1.595144 -3.136937
v 1.779043 1.595144 -2.977841
v 1.853620 1.595144 1.050407
v 0.000000 1.595144 1.333657
v 2.052186 0.366068 -4.145111
v 0.000000 0.123891 -4.102439
v 2.656845 1.282063 -4.187457
v 1.010214 1.039887 -4.194573
v 2.245016 0.123891 -4.102439
v 1.010214 0.366068 -4.145111
v 1.135694 0.950771 -4.365469
v 1.135694 0.429274 -4.327188
v 2.047666 0.950771 -4.365469
v 1.942119 0.429274 -4.327188
v -2.188561 1.039887 -4.194573
v -1.746406 -1.000000 -3.587933
v -2.127224 0.489980 3.762767
v -2.446706 -1.000000 4.019939
v -2.104351 1.000000 1.667296
v -2.620722 -1.000000 1.667296
v -2.238189 0.624120 3.542075
v -2.620722 -1.000000 3.542075
v -2.620722 -1.000000 -0.965670
v -2.620722 -1.000000 -3.372502
v -2.104351 1.000000 -3.372502
v -2.528801 -1.000000 1.667296
v -2.528801 -1.000000 3.542075
v -2.528801 -1.000000 -0.965670
v -2.528801 -1.000000 -3.372502
v -1.554724 -1.000000 1.667296
v -1.554724 -1.000000 3.542075
v -1.554724 -1.000000 -0.965670
v -1.554724 -1.000000 -3.372502
v -2.528801 -1.297011 -3.372502
v -2.528801 -1.297011 -0.965670
v -2.528801 -1.297011 1.667296
v -2.528801 -1.297011 3.542075
v -1.554724 -1.297011 1.667296
v -1.554724 -1.297011 3.542075
v -1.554724 -1.297011 -0.965670
v -1.554724 -1.297011 -3.372502
v -2.528801 -1.596117 -3.201979
v -2.528801 -1.596117 -1.136193
v -2.528801 -1.596117 1.800123
v -2.528801 -1.596117 3.409248
v -1.554724 -1.596117 1.800123
v -1.554724 -1.596117 3.409248
v -1.554724 -1.596117 -1.136193
v -1.554724 -1.596117 -3.201979
v -2.528801 -1.787143 -2.578684
v -2.528801 -1.787143 -1.759488
v -2.528801 -1.787143 2.285633
v -2.528801 -1.787143 2.923738
v -1.554724 -1.787143 2.285633
v -1.554724 -1.787143 2.923738
v -1.554724 -1.787143 -1.759488
v -1.554724 -1.787143 -2.578684
v -2.687051 -0.092109 1.667296
v -2.687051 -0.092109 3.542075
v -2.687051 -0.092109 -0.965670
v -2.687051 -0.092109 -3.372502
v -2.770783 -0.408020 1.667296
v -2.839970 -1.010961 1.880363
v -2.770783 -0.408020 3.542075
v -2.839970 -1.010961 3.329008
v -2.770783 -0.408020 -0.965670
v -2.839970 -1.010961 -1.239205
v -2.770783 -0.408020 -3.372502
v -2.839970 -1.010961 -3.098967
v -1.455823 2.190288 0.372981
v -1.455823 2.190288 -2.204187
v -1.779043 1.595144 -2.977841
v -1.853620 1.595144 1.050407
v -2.052186 0.366068 -4.145111
v -2.656845 1.282063 -4.187457
v -1.010214 1.039887 -4.194573
v -2.245016 0.123891 -4.102439
v -1.010214 0.366068 -4.145111
v -1.135694 0.950771 -4.365469
v -1.135694 0.429274 -4.327188
v -2.047666 0.950771 -4.365469
v -1.942119 0.429274 -4.327188
vn -0.0000 -1.0000 -0.0000
vn 0.5740 0.2573 0.7774
vn 0.8384 -0.2631 0.4773
vn 0.0532 0.8021 -0.5948
vn -0.0000 0.9450 0.3271
vn -0.0000 0.9805 0.1966
vn -0.0000 0.1701 0.9854
vn -0.0000 -0.0000 -1.0000
vn -0.0000 -0.0000 1.0000
vn -0.0000 -0.4162 -0.9093
vn -0.0000 0.8545 0.5194
vn -0.0000 -0.4953 0.8687
vn -1.0000 -0.0000 -0.0000
vn 1.0000 -0.0000 -0.0000
vn -0.0000 -0.4059 -0.9139
vn -0.0000 -0.4953 -0.8687
vn -0.0000 -0.4059 0.9139
vn -0.0000 -0.9561 0.2930
vn -0.0000 -0.9306 -0.3661
vn -0.0000 -0.9561 -0.2930
vn -0.0000 -0.9306 0.3661
vn -0.0499 -0.9988 -0.0000
vn 0.8823 0.4707 -0.0000
vn 0.9973 -0.0729 -0.0000
vn 0.9666 0.2562 -0.0000
vn 0.9935 0.1140 -0.0000
vn 0.7618 -0.1931 -0.6184
vn 0.6820 -0.1729 -0.7107
vn -0.0000 1.0000 -0.0000
vn -0.0000 0.8501 0.5266
vn 0.8314 0.5557 -0.0000
vn 0.9216 0.3882 -0.0000
vn 0.1321 0.4847 0.8646
vn -0.0000 0.5527 -0.8334
vn -0.0000 -0.9447 -0.3279
vn 0.8206 0.4378 -0.3674
vn 0.6426 -0.5358 -0.5477
vn 0.2392 -0.0175 -0.9708
vn -0.0000 0.0294 -0.9996
vn 0.1019 -0.0933 -0.9904
vn -0.0246 -0.0732 -0.9970
vn -0.0000 -0.1735 -0.9848
vn -0.0000 -0.0732 -0.9973
vn 0.8049 -0.2038 -0.5573
vn -0.8157 -0.0423 -0.5769
vn -0.0000 0.8867 -0.4624
vn -0.6783 0.4251 0.5994
vn -0.8384 -0.2631 0.4773
vn -0.0532 0.8021 -0.5948
vn 0.0499 -0.9988 -0.0000
vn -0.8473 0.5310 -0.0000
vn -0.9973 -0.0729 -0.0000
vn -0.9666 0.2562 -0.0000
vn -0.9935 0.1140 -0.0000
vn -0.0955 0.7750 0.6248
vn -0.8697 0.4933 -0.0161
vn -0.9216 0.3882 -0.0000
vn -0.0000 0.7197 0.6943
vn -0.8206 0.4378 -0.3674
vn -0.6426 -0.5358 -0.5477
vn -0.2392 -0.0175 -0.9708
vn -0.1019 -0.0933 -0.9904
vn 0.0246 -0.0732 -0.9970
vn -0.8049 -0.2038 -0.5573
vn 0.8157 -0.0423 -0.5769
vn 0.9374 -0.0685 0.3414
vn 0.6783 0.4251 0.5994
vn 0.2798 0.5495 -0.7873
vn 0.8818 0.4705 0.0314
vn 0.8473 0.5310 -0.0000
vn 0.7618 -0.1931 0.6184
vn 0.6820 -0.1729 0.7107
vn 0.0955 0.7750 0.6248
vn 0.8697 0.4933 -0.0161
vn 0.8728 0.4878 -0.0162
vn 0.0829 0.3668 -0.9266
vn 0.0647 -0.0959 -0.9933
vn -0.9374 -0.0685 0.3414
vn -0.5740 0.2573 0.7774
vn -0.2798 0.5495 -0.7873
vn -0.8818 0.4705 0.0314
vn -0.8823 0.4707 -0.0000
vn -0.7618 -0.1931 -0.6184
vn -0.7618 -0.1931 0.6184
vn -0.6820 -0.1729 0.7107
vn -0.6820 -0.1729 -0.7107
vn -0.8314 0.5557 -0.0000
vn -0.8728 0.4878 -0.0162
vn -0.1321 0.4847 0.8646
vn -0.0829 0.3668 -0.9266
vn -0.0647 -0.0959 -0.9933
vt 0.329429 0.735141
vt 0.361220 0.735141
vt 0.375000 0.750000
vt 0.500000 0.735141
vt 0.625000 0.750000
vt 0.375000 0.676845
vt 0.361220 0.676845
vt 0.375000 0.520132
vt 0.361220 0.594973
vt 0.361220 0.520132
vt 0.498122 0.500000
vt 0.625000 0.500000
vt 0.625000 0.520132
vt 0.750000 0.520132
vt 0.750000 0.500000
vt 0.625000 0.676845
vt 0.750000 0.735141
vt 0.625000 0.735141
vt 0.375000 0.875000
vt 0.329429 0.676845
vt 0.329429 0.594973
vt 0.375000 0.500000
vt 0.498122 0.375000
vt 0.329429 0.520132
vt 0.250000 0.735141
vt 0.250000 0.676845
vt 0.250000 0.594973
vt 0.250000 0.520132
vt 0.375000 0.594973
vt 0.500000 0.594973
vt 0.500000 0.520132
vt 0.375000 0.735141
vt 0.500000 0.676845
vt 0.750000 0.676845
vt 0.524653 0.486642
vt 0.524653 0.387859
vt 0.598470 0.387060
vt 0.598470 0.487452
vt 0.625000 0.375000
vt 0.625000 0.875000
vt 0.250000 0.750000
vt 0.375000 0.375000
vt 0.250000 0.500000
vt 0.750000 0.750000
s 0
usemtl Material.001
f 36/15/7 32/16/7 12/17/7
f 64/18/8 11/19/8 12/17/8
f 14/20/7 32/16/7 31/21/7
f 18/22/7 33/23/7 34/24/7
f 87/25/9 85/26/9 19/27/9
f 79/28/10 78/27/10 80/27/10
f 23/29/11 19/27/11 85/26/11
f 13/30/12 27/31/12 15/32/12
f 11/19/13 22/33/13 12/17/13
f 31/21/14 43/34/14 35/34/14
f 37/35/15 40/23/15 33/23/15
f 10/36/16 84/37/16 87/25/16
f 37/35/7 31/21/7 35/34/7
f 10/36/7 34/24/7 38/38/7
f 35/34/7 26/39/7 24/40/7
f 38/38/7 28/41/7 29/42/7
f 27/31/17 11/19/17 15/32/17
f 45/35/18 48/23/18 40/23/18
f 44/15/19 51/34/19 52/15/19
f 35/34/19 44/15/19 36/15/19
f 33/23/20 39/24/20 34/24/20
f 34/24/14 46/38/14 38/38/14
f 36/15/15 42/16/15 32/16/15
f 38/38/19 45/35/19 37/35/19
f 32/16/20 41/21/20 31/21/20
f 51/34/19 60/15/19 52/15/19
f 50/16/20 57/21/20 49/21/20
f 41/21/21 51/34/21 43/34/21
f 40/23/20 47/24/20 39/24/20
f 46/38/19 53/35/19 45/35/19
f 39/24/22 54/38/22 46/38/22
f 44/15/23 50/16/23 42/16/23
f 42/16/20 49/21/20 41/21/20
f 55/24/7 61/35/7 62/38/7
f 57/21/7 60/15/7 59/34/7
f 53/35/24 56/23/24 48/23/24
f 49/21/25 59/34/25 51/34/25
f 47/24/20 56/23/20 55/24/20
f 54/38/19 61/35/19 53/35/19
f 47/24/26 62/38/26 54/38/26
f 52/15/27 58/16/27 50/16/27
f 18/22/28 72/43/28 17/43/28
f 65/44/29 66/45/29 19/27/29
f 65/44/30 14/20/30 17/43/30
f 65/44/31 73/45/31 66/45/31
f 68/20/32 69/18/32 70/46/32
f 73/45/32 72/43/32 74/22/32
f 16/46/28 68/20/28 70/46/28
f 64/18/31 67/47/31 63/47/31
f 18/22/33 73/45/33 74/22/33
f 17/43/15 71/44/15 65/44/15
f 16/46/15 69/18/15 64/18/15
f 14/20/34 67/47/34 68/20/34
f 78/27/35 76/48/35 77/30/35
f 82/48/36 77/30/36 76/48/36
f 81/30/37 78/27/37 77/30/37
f 19/27/38 81/30/38 13/30/38
f 25/48/39 81/30/39 82/48/39
f 30/28/40 80/27/40 19/27/40
f 83/49/41 90/50/41 92/49/41
f 87/25/42 19/27/42 66/45/42
f 10/36/43 87/25/43 66/45/43
f 18/22/44 10/36/44 66/45/44
f 86/51/45 85/26/45 9/52/45
f 9/52/46 87/25/46 83/49/46
f 88/50/47 23/53/47 86/51/47
f 88/50/48 87/25/48 84/37/48
f 92/49/49 89/51/49 91/52/49
f 83/49/50 91/52/50 9/52/50
f 86/51/51 90/50/51 88/50/51
f 86/51/52 91/52/52 89/51/52
f 105/16/7 109/15/7 96/17/7
f 95/19/53 99/32/53 137/18/53
f 105/16/7 98/20/7 104/21/7
f 106/23/7 102/22/7 107/24/7
f 155/25/54 103/27/54 153/26/54
f 149/27/55 79/28/55 150/27/55
f 103/27/11 23/29/11 153/26/11
f 97/30/12 27/31/12 25/48/12
f 95/19/13 22/33/13 21/54/13
f 116/34/14 104/21/14 108/34/14
f 113/23/15 110/35/15 106/23/15
f 84/37/16 94/36/16 155/25/16
f 108/34/7 104/21/7 106/23/7
f 111/38/7 107/24/7 94/36/7
f 26/39/7 108/34/7 24/40/7
f 28/41/7 111/38/7 29/42/7
f 95/19/17 27/31/17 99/32/17
f 121/23/18 118/35/18 113/23/18
f 117/15/20 124/34/20 116/34/20
f 117/15/20 108/34/20 109/15/20
f 112/24/19 106/23/19 107/24/19
f 119/38/14 107/24/14 111/38/14
f 115/16/15 109/15/15 105/16/15
f 118/35/20 111/38/20 110/35/20
f 114/21/19 105/16/19 104/21/19
f 133/15/20 124/34/20 125/15/20
f 130/21/19 123/16/19 122/21/19
f 124/34/21 114/21/21 116/34/21
f 120/24/19 113/23/19 112/24/19
f 126/35/20 119/38/20 118/35/20
f 127/38/22 112/24/22 119/38/22
f 123/16/23 117/15/23 115/16/23
f 122/21/19 115/16/19 114/21/19
f 134/35/7 128/24/7 135/38/7
f 133/15/7 130/21/7 132/34/7
f 129/23/24 126/35/24 121/23/24
f 132/34/25 122/21/25 124/34/25
f 120/24/19 129/23/19 121/23/19
f 134/35/20 127/38/20 126/35/20
f 135/38/26 120/24/26 127/38/26
f 131/16/27 125/15/27 123/16/27
f 145/43/56 102/22/56 101/43/56
f 136/47/57 137/18/57 99/32/57
f 98/20/58 138/44/58 101/43/58
f 146/45/59 138/44/59 139/45/59
f 141/20/60 142/18/60 140/47/60
f 145/43/60 146/45/60 147/22/60
f 100/46/56 141/20/56 98/20/56
f 140/47/59 137/18/59 136/47/59
f 102/22/14 146/45/14 139/45/14
f 144/44/15 101/43/15 138/44/15
f 142/18/15 100/46/15 137/18/15
f 98/20/14 140/47/14 136/47/14
f 149/27/35 76/48/35 75/28/35
f 82/48/61 148/30/61 151/30/61
f 151/30/62 149/27/62 150/27/62
f 151/30/63 103/27/63 97/30/63
f 25/48/64 151/30/64 97/30/64
f 150/27/40 30/28/40 103/27/40
f 152/49/41 158/50/41 156/50/41
f 155/25/65 139/45/65 103/27/65
f 94/36/66 139/45/66 155/25/66
f 102/22/67 139/45/67 94/36/67
f 153/26/45 154/51/45 93/52/45
f 155/25/68 93/52/68 152/49/68
f 23/53/69 156/50/69 154/51/69
f 156/50/48 155/25/48 152/49/48
f 157/51/49 160/49/49 159/52/49
f 159/52/70 152/49/70 93/52/70
f 158/50/71 154/51/71 156/50/71
f 154/51/52 159/52/52 93/52/52
f 32/16/7 16/46/7 12/17/7
f 12/17/7 22/55/7 36/15/7
f 22/55/7 26/39/7 36/15/7
f 12/17/72 16/46/72 64/18/72
f 64/18/73 15/32/73 11/19/73
f 14/20/7 16/46/7 32/16/7
f 18/22/7 17/43/7 33/23/7
f 79/28/74 75/28/74 78/27/74
f 23/29/11 30/28/11 19/27/11
f 13/30/12 25/48/12 27/31/12
f 11/19/13 21/54/13 22/33/13
f 31/21/14 41/21/14 43/34/14
f 37/35/15 45/35/15 40/23/15
f 10/36/16 20/56/16 84/37/16
f 33/23/7 17/43/7 14/20/7
f 33/23/7 14/20/7 31/21/7
f 24/40/7 28/41/7 37/35/7
f 37/35/7 33/23/7 31/21/7
f 35/34/7 24/40/7 37/35/7
f 29/42/7 20/57/7 38/38/7
f 20/57/7 10/36/7 38/38/7
f 10/36/7 18/22/7 34/24/7
f 35/34/7 36/15/7 26/39/7
f 38/38/7 37/35/7 28/41/7
f 27/31/17 21/58/17 11/19/17
f 45/35/18 53/35/18 48/23/18
f 44/15/19 43/34/19 51/34/19
f 35/34/19 43/34/19 44/15/19
f 33/23/20 40/23/20 39/24/20
f 34/24/14 39/24/14 46/38/14
f 36/15/15 44/15/15 42/16/15
f 38/38/19 46/38/19 45/35/19
f 32/16/20 42/16/20 41/21/20
f 51/34/19 59/34/19 60/15/19
f 50/16/20 58/16/20 57/21/20
f 41/21/21 49/21/21 51/34/21
f 40/23/20 48/23/20 47/24/20
f 46/38/19 54/38/19 53/35/19
f 39/24/22 47/24/22 54/38/22
f 44/15/23 52/15/23 50/16/23
f 42/16/20 50/16/20 49/21/20
f 55/24/7 56/23/7 61/35/7
f 57/21/7 58/16/7 60/15/7
f 53/35/24 61/35/24 56/23/24
f 49/21/25 57/21/25 59/34/25
f 47/24/20 48/23/20 56/23/20
f 54/38/19 62/38/19 61/35/19
f 47/24/26 55/24/26 62/38/26
f 52/15/27 60/15/27 58/16/27
f 18/22/28 74/22/28 72/43/28
f 19/27/29 13/30/29 65/44/29
f 13/30/75 15/32/75 63/47/75
f 65/44/29 13/30/29 63/47/29
f 15/32/76 64/18/76 63/47/76
f 65/44/30 63/47/30 14/20/30
f 65/44/31 71/44/31 73/45/31
f 68/20/32 67/47/32 69/18/32
f 73/45/32 71/44/32 72/43/32
f 16/46/28 14/20/28 68/20/28
f 64/18/31 69/18/31 67/47/31
f 18/22/14 66/45/14 73/45/14
f 17/43/77 72/43/77 71/44/77
f 16/46/78 70/46/78 69/18/78
f 14/20/14 63/47/14 67/47/14
f 78/27/35 75/28/35 76/48/35
f 82/48/79 81/30/79 77/30/79
f 81/30/80 80/27/80 78/27/80
f 19/27/81 80/27/81 81/30/81
f 25/48/64 13/30/64 81/30/64
f 30/28/82 79/28/82 80/27/82
f 83/49/41 88/50/41 90/50/41
f 86/51/45 23/53/45 85/26/45
f 9/52/83 85/26/83 87/25/83
f 88/50/47 84/37/47 23/53/47
f 88/50/48 83/49/48 87/25/48
f 92/49/49 90/50/49 89/51/49
f 83/49/50 92/49/50 91/52/50
f 86/51/51 89/51/51 90/50/51
f 86/51/52 9/52/52 91/52/52
f 109/15/7 26/39/7 22/55/7
f 22/55/7 96/17/7 109/15/7
f 96/17/7 100/46/7 105/16/7
f 137/18/84 100/46/84 96/17/84
f 96/17/85 95/19/85 137/18/85
f 105/16/7 100/46/7 98/20/7
f 106/23/7 101/43/7 102/22/7
f 149/27/86 75/28/86 79/28/86
f 103/27/11 30/28/11 23/29/11
f 97/30/12 99/32/12 27/31/12
f 95/19/13 96/17/13 22/33/13
f 116/34/14 114/21/14 104/21/14
f 113/23/15 118/35/15 110/35/15
f 84/37/16 20/56/16 94/36/16
f 110/35/7 28/41/7 24/40/7
f 110/35/7 24/40/7 108/34/7
f 98/20/7 101/43/7 106/23/7
f 106/23/7 110/35/7 108/34/7
f 104/21/7 98/20/7 106/23/7
f 94/36/7 20/57/7 111/38/7
f 20/57/7 29/42/7 111/38/7
f 107/24/7 102/22/7 94/36/7
f 26/39/7 109/15/7 108/34/7
f 28/41/7 110/35/7 111/38/7
f 95/19/17 21/58/17 27/31/17
f 121/23/18 126/35/18 118/35/18
f 117/15/20 125/15/20 124/34/20
f 117/15/20 116/34/20 108/34/20
f 112/24/19 113/23/19 106/23/19
f 119/38/14 112/24/14 107/24/14
f 115/16/15 117/15/15 109/15/15
f 118/35/20 119/38/20 111/38/20
f 114/21/19 115/16/19 105/16/19
f 133/15/20 132/34/20 124/34/20
f 130/21/19 131/16/19 123/16/19
f 124/34/21 122/21/21 114/21/21
f 120/24/19 121/23/19 113/23/19
f 126/35/20 127/38/20 119/38/20
f 127/38/22 120/24/22 112/24/22
f 123/16/23 125/15/23 117/15/23
f 122/21/19 123/16/19 115/16/19
f 134/35/7 129/23/7 128/24/7
f 133/15/7 131/16/7 130/21/7
f 129/23/24 134/35/24 126/35/24
f 132/34/25 130/21/25 122/21/25
f 120/24/19 128/24/19 129/23/19
f 134/35/20 135/38/20 127/38/20
f 135/38/26 128/24/26 120/24/26
f 131/16/27 133/15/27 125/15/27
f 145/43/56 147/22/56 102/22/56
f 99/32/87 97/30/87 136/47/87
f 97/30/88 103/27/88 138/44/88
f 136/47/88 97/30/88 138/44/88
f 103/27/88 139/45/88 138/44/88
f 98/20/58 136/47/58 138/44/58
f 146/45/59 144/44/59 138/44/59
f 141/20/60 143/46/60 142/18/60
f 145/43/60 144/44/60 146/45/60
f 100/46/56 143/46/56 141/20/56
f 140/47/59 142/18/59 137/18/59
f 102/22/89 147/22/89 146/45/89
f 144/44/90 145/43/90 101/43/90
f 142/18/91 143/46/91 100/46/91
f 98/20/92 141/20/92 140/47/92
f 149/27/35 148/30/35 76/48/35
f 82/48/36 76/48/36 148/30/36
f 151/30/93 148/30/93 149/27/93
f 151/30/94 150/27/94 103/27/94
f 25/48/95 82/48/95 151/30/95
f 150/27/96 79/28/96 30/28/96
f 152/49/41 160/49/41 158/50/41
f 153/26/45 23/53/45 154/51/45
f 155/25/97 153/26/97 93/52/97
f 23/53/69 84/37/69 156/50/69
f 156/50/48 84/37/48 155/25/48
f 157/51/49 158/50/49 160/49/49
f 159/52/70 160/49/70 152/49/70
f 158/50/71 157/51/71 154/51/71
f 154/51/52 157/51/52 159/52/52
